<svg xmlns="http://www.w3.org/2000/svg" width="48" height="48" viewBox="0 0 48 48" fill="none">
  <rect width="48" height="48" rx="10" fill="#111111"/>
  <g fill="#D4A017">
    <path d="M12 14c-3.5-1-6.5-.5-8 2 2.2.4 3.6 1.4 4.4 2.9C10 17 11 15.4 12 14z"/>
    <path d="M36 14c3.5-1 6.5-.5 8 2-2.2.4-3.6 1.4-4.4 2.9C38 17 37 15.4 36 14z"/>
    <path d="M12 15c-2 .4-3.4 1.8-3.8 3.8 1.9.2 3.2-.3 4.2-1.4-.2-.8-.3-1.6-.4-2.4z"/>
    <path d="M36 15c2 .4 3.4 1.8 3.8 3.8-1.9.2-3.2-.3-4.2-1.4.2-.8.3-1.6.4-2.4z"/>
    <path d="M24 14c-6.6 0-11 4.2-11 10.5 0 3.7 1.8 6.8 4.7 8.8C20 35.3 22 36 24 36s4-.7 6.3-2.7c2.9-2 4.7-5.1 4.7-8.8C35 18.2 30.6 14 24 14z"/>
  </g>
  <g fill="#111111">
    <circle cx="19.5" cy="24" r="1.8"/>
    <circle cx="28.5" cy="24" r="1.8"/>
    <circle cx="21.5" cy="31" r="1.3"/>
    <circle cx="26.5" cy="31" r="1.3"/>
  </g>
</svg>
